Coordinates
version=1
nRows=17
nColumns=24
inDegrees=yes

Units are S.I. units (second, meters, Newtons, ...)
Angles are in degrees.

endheader
time	pelvis_tilt	pelvis_list	pelvis_rotation	pelvis_tx	pelvis_ty	pelvis_tz	hip_flexion_r	hip_adduction_r	hip_rotation_r	knee_angle_r	ankle_angle_r	subtalar_angle_r	mtp_angle_r	hip_flexion_l	hip_adduction_l	hip_rotation_l	knee_angle_l	ankle_angle_l	subtalar_angle_l	mtp_angle_l	lumbar_extension	lumbar_bending	lumbar_rotation
      0.92516667	     -8.39780864	     -0.38506591	     -5.98924637	     -0.13536251	      0.89268001	      0.33906072	     -6.40451296	      3.89342904	      1.43636354	    -10.31847647	     14.73523028	      7.57923304	      9.17534732	     34.87117169	     -2.73090797	     -7.99221221	    -14.55724092	      1.91160402	     -3.21662677	      2.08395329	      1.82844618	      1.46273765	     11.07451093
      0.92933333	     -8.47267814	     -0.38954999	     -6.11561223	     -0.12958413	      0.89142794	      0.33896598	     -6.44435776	      3.83394534	      1.63683617	    -10.90072243	     14.87814558	      7.54857951	      9.29672367	     34.91352117	     -2.75940573	     -7.81264126	    -14.54286941	      2.03815793	     -3.19510870	      2.06381068	      1.95288161	      1.44132255	     11.05385067
      0.93350000	     -8.60122610	     -0.36044594	     -6.22575337	     -0.12377865	      0.89012091	      0.33878486	     -6.36529683	      3.72767709	      1.67455495	    -11.60017529	     15.02182522	      7.82524592	      9.69730393	     34.99972159	     -2.73776903	     -7.58955566	    -14.58490548	      2.07693422	     -3.22209317	      2.00310378	      2.15988439	      1.40118974	     11.12832037
      0.93766667	     -8.66009348	     -0.30928430	     -6.30894445	     -0.11792551	      0.88896009	      0.33859563	     -6.36607629	      3.59842614	      1.73385901	    -12.27953112	     15.05092817	      7.89442632	     13.59706611	     34.99877977	     -2.67050963	     -7.36711921	    -14.69006935	      2.11297011	     -3.33793695	      1.54185071	      2.26265115	      1.27197662	     11.13617820
      0.94183333	     -8.74443124	     -0.27867802	     -6.39626491	     -0.11209609	      0.88778475	      0.33842215	     -6.30556866	      3.49921881	      1.83220706	    -13.03879156	     15.14216628	      8.00142871	     13.64084481	     35.05460307	     -2.63907423	     -7.20679289	    -14.94859967	      2.16917256	     -3.34879879	      1.54733343	      2.41079045	      1.18686162	     11.13863903
      0.94600000	     -8.83504358	     -0.22593153	     -6.47111972	     -0.10623834	      0.88664795	      0.33817832	     -6.19094704	      3.36486801	      1.82581490	    -13.88662130	     15.19611107	      8.23795314	     13.75904602	     35.09548221	     -2.56783725	     -7.04301396	    -15.22471425	      2.12592796	     -3.44091993	      1.56409240	      2.57716311	      1.09823954	     11.14112741
      0.95016667	     -8.91456163	     -0.16157376	     -6.53892394	     -0.10037206	      0.88556832	      0.33795957	     -6.07257070	      3.22655745	      1.88082478	    -14.76234367	     15.22905726	      8.36031872	     13.87816343	     35.13128347	     -2.48440405	     -6.91501733	    -15.58666001	      2.08048304	     -3.56301607	      1.58376490	      2.72172545	      0.94973924	     11.10777779
      0.95433333	     -9.00181395	     -0.09322872	     -6.59130516	     -0.09449864	      0.88452111	      0.33768075	     -5.90274157	      3.07805849	      1.86820226	    -15.71814932	     15.20801781	      8.56606652	     14.05715526	     35.17243857	     -2.38300843	     -6.79060523	    -15.99451350	      1.98021462	     -3.71987631	      1.61566218	      2.88420247	      0.82222521	     11.06294582
      0.95850000	     -9.07807923	     -0.01685509	     -6.63221629	     -0.08861246	      0.88354345	      0.33738008	     -5.71516225	      2.91958484	      1.84294681	    -16.72599697	     15.13592765	      8.75728039	     14.28324034	     35.20100536	     -2.26449670	     -6.68483111	    -16.44980104	      1.85522512	     -3.90065936	      1.65844925	      3.02879891	      0.67278543	     10.99238464
      0.96266667	     -9.14797941	      0.06417269	     -6.66140832	     -0.08272006	      0.88262294	      0.33705231	     -5.50136056	      2.75428470	      1.80763321	    -17.79146449	     15.00418994	      8.93309174	     14.52544225	     35.22724733	     -2.13568442	     -6.61391394	    -16.95536638	      1.72125143	     -4.09067825	      1.70572687	      3.17399400	      0.51167901	     10.90394574
      0.96683333	     -9.18874145	      0.14313309	     -6.66095515	     -0.07682229	      0.88182044	      0.33663679	     -5.29098773	      2.58014569	      1.70753746	    -18.88630187	     14.68711605	      9.08228996	     19.11198021	     35.20310039	     -1.96978621	     -6.46154372	    -17.44283889	      1.47607414	     -4.48794555	      2.66344396	      3.27110967	      0.37794881	     10.81258775
      0.97100000	     -9.25023979	      0.23164446	     -6.66611996	     -0.07093330	      0.88101016	      0.33628426	     -5.01141497	      2.40693468	      1.64752565	    -20.08237629	     14.45936623	      9.23842422	     19.17072232	     35.23843464	     -1.83200037	     -6.47943099	    -18.05133573	      1.40176831	     -4.54272125	      2.68445457	      3.40417304	      0.18736486	     10.68479539
      0.97516667	     -9.30969760	      0.31768341	     -6.65425207	     -0.06505982	      0.88027278	      0.33587502	     -4.69433133	      2.23047575	      1.55468028	    -21.33787572	     14.14986530	      9.42914795	     19.27631522	     35.26637399	     -1.67792759	     -6.45950274	    -18.66653776	      1.28334272	     -4.71617844	      2.71235617	      3.53027008	      0.01233586	     10.54147318
      0.97933333	     -9.32071789	      0.42795426	     -6.61360859	     -0.05918567	      0.87966556	      0.33535112	     -4.37790931	      2.00031866	      1.34870354	    -22.67861951	     13.83252655	      9.78003430	     19.85324024	     35.21878471	     -1.45676106	     -6.36096130	    -19.23575794	      1.14126367	     -5.06532006	      2.84890222	      3.58910745	     -0.17203694	     10.34214182
      0.98350000	     -9.39763066	      0.50387191	     -6.57719538	     -0.05337625	      0.87901615	      0.33491697	     -3.95770707	      1.84063336	      1.25403720	    -24.06774478	     13.39500859	      9.84860870	     20.09131842	     35.28277733	     -1.31322355	     -6.38276076	    -19.91023169	      1.04870903	     -5.16139243	      2.90310583	      3.73315324	     -0.32548083	     10.18948181
      0.98766667	     -9.42124492	      0.60697057	     -6.51408645	     -0.04753721	      0.87852294	      0.33439964	     -3.56315503	      1.62733141	      1.08357731	    -25.48367190	     12.78751982	      9.96566482	     24.02256715	     35.26381072	     -1.10312587	     -6.32957516	    -20.53938501	      0.98147877	     -5.45851016	      3.73825075	      3.80726163	     -0.53985020	      9.99796001
      0.99183333	     -9.44331885	      0.70697848	     -6.46039082	     -0.04174096	      0.87808709	      0.33390923	     -3.11640122	      1.41481416	      0.92156257	    -26.99414043	     12.22337637	     10.14792766	     24.07933285	     35.25562853	     -0.92394178	     -6.38287169	    -21.20945460	      0.99887013	     -5.51708646	      3.75929935	      3.87509071	     -0.73319767	      9.80659124
